<?xml version="1.0" encoding="UTF-8"?>
<!DOCTYPE svg PUBLIC "-//W3C//DTD SVG 1.1//EN" "http://www.w3.org/Graphics/SVG/1.1/DTD/svg11.dtd">
<!-- Creator: CorelDRAW 2020 (64-Bit Evaluation Version) -->
<svg xmlns="http://www.w3.org/2000/svg" xml:space="preserve" width="8.5in" height="11in" version="1.1" style="shape-rendering:geometricPrecision; text-rendering:geometricPrecision; image-rendering:optimizeQuality; fill-rule:evenodd; clip-rule:evenodd"
viewBox="0 0 8500 11000"
 xmlns:xlink="http://www.w3.org/1999/xlink"
 xmlns:xodm="http://www.corel.com/coreldraw/odm/2003">
 <defs>
  <style type="text/css">
   <![CDATA[
    .fil0 {fill:#FEFEFE}
   ]]>
  </style>
 </defs>
 <g id="Layer_x0020_1">
  <metadata id="CorelCorpID_0Corel-Layer"/>
  <g id="_1975549783824">
   <g id="_3552C_deveopment2C_idea2C_bulb2C_pencil2C_scale2C">
    <g>
     <path class="fil0" d="M3487.3 3128.21l-165.72 -132.25 54.44 -94.06 197.23 77.57 18.98 -21.92 20.69 -22.16 21.17 -19.96 22.67 -19.45 -77.57 -197.25 94.31 -54.43 132.01 165.49 27.31 -9.6c20.22,-5.91 35.98,-10.09 56.42,-15.27l30.27 -5.43 31.55 -209.56 108.83 0 31.51 209.32 28.33 5.42 29.54 6.9 27.34 8.13 28.81 10.34 132.01 -165.73 94.31 54.43 -77.56 197.25 22.15 18.97 21.68 20.68 20.19 20.94 19.45 22.9 197.27 -77.57 54.44 94.32 -165.75 132 9.87 27.57 8.59 28.56 6.66 27.58 5.42 30.28 209.58 31.52 0 108.83 -209.58 31.52 -5.16 28.07 -6.91 29.54 -8.37 27.83 -10.09 28.56 165.75 132 -54.44 94.32 -197.27 -77.57 -19.2 22.4 -20.21 21.68 -20.92 19.46 -23.4 19.94 77.83 197.26 -94.31 54.43 -132.01 -165.73 -27.56 9.85 -28.58 8.6 -27.82 6.66 -30.05 5.42 -31.51 209.57 -108.83 -0 -31.55 -209.57 -27.31 -4.93c-21.43,-5.17 -36.96,-9.35 -58.13,-15.5l-28.55 -10.1 -132.01 165.73 -94.31 -54.43 77.57 -197.26 -22.15 -18.96 -21.68 -20.69 -19.97 -21.17 -19.71 -22.66 -197.23 77.57 -54.44 -94.32 165.49 -132 -9.87 -27.82 -8.11 -28.33 -6.91 -28.3 -5.42 -29.56 -209.54 -31.52 0 -108.83 209.54 -31.78 5.2 -28.32 7.13 -29.3 7.87 -27.33 10.31 -28.78zm-87.41 -147.01l124.84 99.72c11.07,8.87 18.24,20.69 21.2,33.25 2.93,12.31 1.94,25.6 -3.22,37.67l-8.37 23.65 -6.92 24.37 -6.4 26.37 -4.68 25.1c-2.2,13.3 -8.37,24.89 -17,33.49 -9.1,9.11 -20.65,15.03 -33.48,17.01l-158.07 23.87 0 4.94 157.59 23.65c14.04,1.96 26.35,8.87 35.46,18.72 9.1,9.59 15.02,22.4 16.23,36.2l4.21 21.92 6.13 25.37 7.39 25.11 8.89 25.11c4.68,12.32 4.94,25.37 1.72,37.19 -3.44,12.31 -10.6,23.65 -20.69,31.51l-125.1 99.74 2.49 3.94 149.25 -58.63c12.8,-4.93 26.1,-5.17 38.42,-1.73 12.28,3.45 23.61,11.08 31.77,21.67l15.98 18.47 18.24 18.96 19.2 18.72 19.71 16.74c10.34,8.39 17.25,19.47 20.44,31.28 3.22,12.31 2.71,25.6 -1.97,37.67l-58.6 149.24 3.95 2.21 99.73 -125.1c8.63,-10.82 20.21,-17.97 32.76,-20.93 12.32,-2.95 25.37,-2.21 37.44,2.72l24.13 8.61c18.98,5.42 32.76,9.35 51.95,13.79l24.17 4.43c13.27,2.22 24.85,8.39 33.48,16.74 9.1,9.35 15.24,21.18 17,33.73l23.87 158.1 4.93 0 23.61 -157.84c1.97,-13.79 8.89,-26.1 18.72,-35.21 9.61,-9.11 22.67,-15.03 36.45,-16.26l22.16 -4.19 24.63 -5.91 25.63 -7.63 24.6 -8.61c12.57,-4.93 25.63,-5.18 37.44,-2.22 12.32,3.44 23.4,10.83 31.5,20.67l99.52 125.1 4.16 -2.46 -58.6 -148.99c-4.94,-12.8 -5.15,-26.59 -1.46,-38.9 3.44,-12.06 10.81,-23.16 21.16,-31.03l19.45 -16.74 18.46 -17.49 18.24 -19.22 17.01 -19.94c8.37,-10.34 19.44,-17.23 31.5,-20.45 12.06,-3.2 25.37,-2.71 37.44,1.97l149.23 58.61 2.2 -4.19 -125.07 -99.49c-10.85,-8.61 -17.99,-20.19 -20.95,-32.76 -2.96,-12.31 -2.23,-25.37 2.71,-37.43l8.63 -24.39 7.13 -24.61 6.4 -26.34 4.68 -25.13c2.23,-13.05 8.37,-24.61 17,-33.24 9.1,-9.11 20.95,-15.27 33.49,-17.23l158.11 -23.9 0 -4.68 -158.11 -23.65c-14.04,-2.21 -26.35,-9.1 -35.21,-18.95 -8.89,-9.6 -14.77,-22.17 -15.76,-35.71l-4.43 -22.67 -5.92 -24.63 -7.63 -25.6 -8.63 -24.63c-4.91,-12.56 -5.42,-25.61 -2.2,-37.44 3.44,-12.31 10.82,-23.4 20.69,-31.52l125.07 -99.72 -2.2 -3.94 -149.23 58.35c-12.82,4.93 -26.1,5.43 -38.42,1.97 -12.32,-3.44 -23.66,-11.08 -31.77,-21.67l-16.01 -18.72 -17.99 -18.96 -19.45 -18.47 -19.71 -16.74c-10.34,-8.37 -17.21,-19.45 -20.44,-31.51 -3.18,-12.06 -2.71,-25.37 1.97,-37.44l58.6 -149.23 -4.16 -2.22 -99.52 124.85c-8.84,11.07 -20.65,18.23 -33.22,21.18 -12.32,2.95 -25.63,1.97 -37.69,-3.21l-23.87 -8.37 -24.13 -7.15 -26.35 -6.16 -25.11 -4.68c-13.3,-2.23 -25.11,-8.39 -33.74,-17.24 -8.85,-8.87 -15.02,-20.69 -17,-33.49l-23.61 -157.84 -4.68 0 -23.91 157.84c-2.2,14.28 -9.1,26.59 -18.94,35.46 -9.61,8.87 -22.19,14.77 -35.72,15.77l-22.67 4.43c-18.72,4.44 -32.24,8.13 -50.74,13.54l-24.34 8.87c-12.32,4.68 -25.37,4.94 -37.22,1.73 -12.28,-3.45 -23.4,-10.59 -31.51,-20.68l-99.73 -125.1 -3.95 2.46 58.6 149.23c4.94,12.55 5.19,26.1 1.75,38.42 -3.47,12.31 -11.11,23.65 -21.43,31.52l-18.72 16 -18.98 18.23 -18.72 19.45 -16.74 19.72c-8.37,10.33 -19.45,17.23 -31.51,20.43 -12.06,3.21 -25.37,2.71 -37.44,-2.22l-149.23 -58.59 -2.22 4.19zm762.91 2804.85l-314.98 0 0 165.98 314.98 -0 0 -165.98zm-472.57 -286.89l0.73 0 628.93 0 0.77 0 95.52 0 0 -165.73 -90.1 -0 -641.25 0 -90.15 0 0 165.73 95.55 0zm-5.41 -226.31l641.26 0c69.42,0 132.48,-28.07 178.51,-73.37l1.5 -1.73c46.28,-46.06 74.87,-109.82 74.87,-180.01 0,-24.89 0.48,-49.26 1.21,-73.13l0.25 -0.73c9.87,-293.05 79.29,-502.11 161.8,-687.79l2.71 -6.16 1.24 -2.71 1.72 -3.45 2.71 -6.17 1.21 -2.71 1.5 -3.69 2.96 -5.91 0.99 -2.47 1.72 -3.69 2.96 -6.16 0.73 -2.23 1.97 -3.94 2.96 -6.16 0.73 -1.72 1.97 -4.44 2.93 -5.91 0.76 -1.73 1.97 -4.44 2.92 -5.9 0.77 -1.49 1.97 -4.68 2.93 -5.91 0.76 -1.23 2.19 -4.93 3.44 -6.9 2.24 -4.93 2.95 -6.16 0.26 -0.74 2.44 -5.17 2.97 -5.9 0.47 -0.75 2.49 -5.17 2.96 -6.17 0.22 -0.49 5.41 -11.32 0.25 -0.24 2.71 -5.67 2.71 -5.9 0.26 -0.25 5.66 -11.57 0 0 1.97 -4.44c14.77,-30.28 29.54,-60.33 43.84,-90.61l0.73 -1.73 1.24 -2.7 2.22 -4.19 1.73 -3.95 0.22 -0.49 1.97 -4.44 7.91 -16.74 0.24 -0.5 1.95 -4.44 1.97 -4.18 0.76 -1.72 1.21 -2.72 1.98 -4.44 1.71 -3.94 0.26 -0.5 1.97 -4.18 1.97 -4.43 0.73 -1.73 1.24 -2.71 1.97 -4.44 1.71 -3.95 0.22 -0.24 1.97 -4.44 1.97 -4.43 0.73 -1.96 1.24 -2.47 1.72 -4.43 1.72 -3.95c84.74,-196.76 129.3,-389.08 129.3,-611.21 0,-287.63 -116.47,-548.16 -305.1,-736.79 -188.63,-188.37 -449.19,-305.11 -736.81,-305.11 -287.62,0 -548.13,116.74 -736.77,305.11 -188.63,188.63 -305.1,449.17 -305.1,736.79 0,284.44 75.6,506.79 192.8,749.6l1.46 2.96 0.77 1.48 2.19 4.43 4.21 8.63 1.97 4.44 1.21 2.46 0.99 1.97 2.23 4.18 1.97 4.43 0.25 0.25 1.94 4.18 1.97 4.44 4.46 8.61 1.94 4.19 0 0.24 8.63 17.73 2.71 5.43 0.25 0.49 2.71 5.91 2.71 5.42 0.25 0.24 2.97 6.17 2.45 5.17 0.25 0.5 2.97 6.16c105.4,217.94 206.37,450.65 218.65,808.7l0 0.75 0 0.49 0 0.24 0 0.74c0.99,23.63 1.5,47.77 1.5,72.4 0,70.19 28.55,133.95 74.87,180.01 46.13,46.56 109.93,75.11 180.12,75.11zm1317.96 -1433.94c-28.33,73.13 -60.56,142.58 -93.58,211.28l-0.98 1.97 -1 1.96 -23.87 49.26 -1.97 3.94 0 0 -5.2 10.83 -0.48 0.74 -2.22 4.44 -5.17 10.83 -2.71 5.17 -5.19 10.84 -1.2 2.95 -1.24 2.46 -2.71 5.17 -1.72 3.69 -0.77 1.73 -2.7 5.43 -5.17 10.82 -2.48 5.18 0 0.24 -2.71 5.43 -2.44 5.42 -0.26 0.5 -5.42 11.56 -1.97 4.19 -3.44 7.39 -1.71 3.46 -2.48 5.42 -1.21 2.71 -1.5 2.95 -2.46 5.43 -1.5 3.45 -0.95 1.97 -2.48 5.66c-31.04,67.73 -60.32,138.4 -85.7,214.99l279 0.01 0 -264.22c0,-16.51 13.78,-30.05 30.3,-30.05 16.74,0 30.27,13.54 30.27,30.05l0 264.22 171.41 0 0 -392.78c0,-16.5 13.52,-30.29 30.26,-30.29 16.49,0 30.31,13.79 30.31,30.29l0 392.78 162.5 0 0 -264.22c0,-16.51 13.56,-30.05 30.3,-30.05 16.74,0 30.3,13.54 30.3,30.05l0 264.22 171.38 0 0 -392.78c0,-16.5 13.52,-30.29 30.26,-30.29 16.53,0 30.3,13.79 30.3,30.29l0 392.78 191.35 0c0,-948.09 0,-248.23 0,-629.43l-941.42 -0 0 0.01zm-1718.11 629.43c-75.13,-226.8 -192.33,-411.74 -276.56,-629.43l-941.42 -0c0,374.3 0,-309.05 0,629.43l208.3 0 0 -264.22c0,-16.51 13.82,-30.05 30.31,-30.05 16.74,0 30.27,13.54 30.27,30.05l0 264.22 171.42 0 0 -392.78c0,-16.5 13.52,-30.29 30.27,-30.29 16.52,0 30.3,13.79 30.3,30.29l0 392.78 162.54 0 0 -264.22c0,-16.51 13.52,-30.05 30.27,-30.05 16.75,0 30.3,13.54 30.3,30.05l0 264.22 171.38 0 0 -392.78c0,-16.5 13.56,-30.29 30.31,-30.29 16.49,0 30.27,13.79 30.27,30.29l0 392.78 262.02 0zm-422.35 260.04l-563.42 159.82 563.42 159.82 0 -101.71 0 -0.99 0 -0.74 0 -120.43 0 -0.73 0 -1 0 -94.06zm494.25 64.76c-2.96,-25.11 -6.44,-49.5 -10.34,-73.39l-423.33 0 0 73.39 433.68 0zm10.09 121.91c-0.99,-20.95 -2.23,-41.39 -3.95,-61.33l-439.82 0 0 61.33 443.77 0zm4.89 141.34c-1.46,-12.55 -2.19,-25.6 -2.19,-38.66 0,-14.04 -0.25,-28.07 -0.51,-42.11l-445.96 0 0 80.77 448.67 0zm446 669.32l375.52 0 0.99 0 95.56 0 0 -165.98 -568.37 0 0 165.98 95.52 0 0.77 0zm1501.16 -1005.96l-158.33 0 0 336.63 158.33 0c43.35,0 82.98,-17.72 111.57,-46.29 28.8,-28.55 46.53,-68.21 46.53,-111.8l0 -20.43c0,-42.84 -17.25,-81.77 -45.07,-110.32l-1.46 -1.49c-28.59,-28.56 -68.22,-46.3 -111.57,-46.3zm-218.69 336.64l0 -336.63 -93.33 0 0 336.63 93.33 0zm-153.91 -263.25l0 -73.39 -281.46 0c-3.95,23.89 -7.39,48.27 -10.34,73.39l291.8 0zm0 121.91l0 -61.33 -297.95 0c-1.76,19.95 -2.96,40.39 -3.95,61.33l301.9 0zm0 141.34l0 -80.77 -304.11 0c-0.26,14.04 -0.48,28.07 -0.48,42.11 0,13.05 -0.73,26.1 -2.48,38.66l307.07 0zm-769.53 -1899.37c-43.83,-43.83 -104.41,-70.93 -171.17,-70.93 -66.72,0 -127.29,27.09 -171.13,70.93 -43.83,43.83 -70.93,104.42 -70.93,171.16 0,66.74 27.09,127.31 70.93,171.15 43.83,43.82 104.41,70.93 171.13,70.93 66.75,0 127.33,-27.1 171.17,-70.93 43.83,-43.83 70.93,-104.41 70.93,-171.15 0,-66.74 -27.09,-127.32 -70.93,-171.16zm1621.09 2953.58c16.49,0 30.05,13.55 30.05,30.29 0,16.49 -13.56,30.28 -30.05,30.28l-574.28 0c-16.74,0 -30.26,-13.79 -30.26,-30.28 0,-16.74 13.52,-30.29 30.26,-30.29l574.28 -0zm-712.91 157.61c16.49,0 30.05,13.54 30.05,30.28 0,16.75 -13.56,30.3 -30.05,30.3l-1301.22 0c-16.74,0 -30.31,-13.55 -30.31,-30.3 0,-16.74 13.56,-30.28 30.31,-30.28l1301.22 0zm-2946.45 60.58c-16.74,0 -30.3,-13.55 -30.3,-30.3 0,-16.74 13.56,-30.28 30.3,-30.28l574.02 0c16.74,0 30.27,13.54 30.27,30.28 0,16.75 -13.52,30.3 -30.27,30.3l-574.02 0zm1080.56 0c-16.74,0 -30.3,-13.55 -30.3,-30.3 0,-16.74 13.56,-30.28 30.3,-30.28l261.79 0c16.74,0 30.27,13.54 30.27,30.28 0,16.75 -13.52,30.3 -30.27,30.3l-261.79 0zm1602.63 -4525.69c8.39,-14.28 26.83,-19.21 41.13,-11.08 14.51,8.39 19.45,26.84 11.07,41.13l-166.7 289.1c-8.37,14.28 -26.87,19.45 -41.13,11.07 -14.54,-8.37 -19.49,-26.83 -11.07,-41.11l166.69 -289.11zm627.7 605.53c14.54,-8.11 33.01,-3.2 41.13,11.08 8.37,14.54 3.48,33.01 -11.07,41.13l-288.84 166.95c-14.55,8.13 -33.01,3.2 -41.13,-11.07 -8.37,-14.54 -3.48,-33 11.07,-41.13l288.84 -166.96zm240.83 838.27c16.74,0 30.31,13.54 30.31,30.28 0,16.5 -13.57,30.29 -30.31,30.29l-333.66 0c-16.74,0 -30.3,-13.79 -30.3,-30.29 0,-16.74 13.56,-30.28 30.3,-30.28l333.66 -0zm-2502.2 -1413.75c-8.37,-14.29 -3.44,-32.76 11.07,-41.13 14.29,-8.11 33.01,-3.2 41.13,11.08l166.96 289.1c8.16,14.28 3.22,32.76 -11.07,41.11 -14.51,8.39 -32.98,3.22 -41.34,-11.07l-166.74 -289.09zm-605.54 627.71c-14.29,-8.13 -19.45,-26.6 -11.07,-41.13 8.11,-14.28 26.58,-19.21 41.13,-11.08l289.09 166.97c14.29,8.13 19.23,26.59 11.07,41.13 -8.37,14.27 -26.83,19.21 -41.13,11.07l-289.09 -166.95zm1394.81 -893.93c0.22,-16.73 14.04,-30.03 30.53,-29.78 16.74,0.23 30.04,13.77 29.79,30.54l-3.95 284.18c0,16.74 -13.78,30.03 -30.52,29.78 -16.49,0 -29.79,-13.79 -29.54,-30.28l3.69 -284.44zm-1345.79 1679.97c16.74,0 30.27,13.54 30.27,30.28 0,16.5 -13.53,30.29 -30.27,30.29l-333.69 0c-16.49,0 -30.3,-13.79 -30.3,-30.29 0,-16.74 13.82,-30.28 30.3,-30.28l333.69 -0zm219.89 2924.27c-16.74,0 -30.3,-13.79 -30.3,-30.28 0,-16.74 13.56,-30.29 30.3,-30.29l2018.81 -0c16.74,0 30.26,13.55 30.26,30.29 0,16.49 -13.52,30.28 -30.26,30.28l-2018.81 0zm1154.19 -3145.66c83.5,0 159.09,33.98 213.76,88.66 54.91,54.91 88.9,130.5 88.9,214 0,83.48 -34,159.07 -88.65,213.75 -54.91,54.91 -130.51,88.89 -214.01,88.89 -83.46,0 -159.06,-33.98 -213.75,-88.65 -54.91,-54.91 -88.87,-130.51 -88.87,-213.99 0,-83.5 33.96,-159.08 88.65,-213.76 54.92,-54.93 130.51,-88.9 213.97,-88.9z"/>
    </g>
   </g>
   <g id="Layer_1">
   </g>
  </g>
 </g>
</svg>
